<?xml version="1.0" standalone="no"?>
<!DOCTYPE svg PUBLIC "-//W3C//DTD SVG 20010904//EN"
 "http://www.w3.org/TR/2001/REC-SVG-20010904/DTD/svg10.dtd">
<svg version="1.0" xmlns="http://www.w3.org/2000/svg"
 width="500.000000pt" height="500.000000pt" viewBox="0 0 500.000000 500.000000"
 preserveAspectRatio="xMidYMid meet">
<metadata>
Created by potrace 1.13, written by Peter Selinger 2001-2015
</metadata>
<g transform="translate(0.000000,500.000000) scale(0.100000,-0.100000)"
fill="#000000" stroke="none">
<path d="M2250 4993 c-97 -9 -249 -38 -367 -68 -885 -230 -1572 -954 -1758
-1852 -63 -308 -61 -700 6 -1013 91 -421 316 -847 612 -1157 84 -88 253 -235
319 -277 l26 -17 -45 -42 c-25 -23 -57 -64 -71 -92 -23 -43 -27 -62 -27 -140
0 -74 4 -98 23 -137 95 -193 344 -243 501 -102 56 50 96 125 106 195 l7 46 49
-18 c111 -42 290 -91 423 -115 102 -18 144 -30 151 -42 29 -48 124 -130 170
-145 79 -27 178 -23 250 12 54 25 121 85 150 134 7 12 44 23 130 37 138 23
270 58 401 105 l92 32 6 -49 c34 -250 337 -361 525 -192 29 26 62 69 78 102
58 118 27 275 -72 367 l-44 41 92 70 c111 83 310 279 397 389 208 263 369 581
451 889 55 208 71 324 76 557 6 241 -5 383 -43 567 -95 461 -320 878 -654
1212 -284 285 -609 484 -991 604 -130 42 -316 81 -451 95 -89 10 -434 13 -518
4z m455 -63 c273 -25 576 -110 820 -229 238 -117 411 -239 599 -421 444 -430
691 -976 722 -1596 7 -128 7 -130 -24 -201 -229 -547 -1011 -909 -2102 -974
-538 -32 -1227 71 -1700 254 -455 176 -742 421 -851 729 -29 80 -30 88 -24
203 29 582 256 1105 660 1524 497 514 1194 775 1900 711z m-2450 -2740 c53
-73 200 -208 300 -276 443 -304 1199 -496 1950 -498 838 -1 1604 219 2040 586
111 94 220 221 267 311 10 22 21 37 23 35 8 -8 -26 -215 -56 -338 -159 -652
-610 -1221 -1212 -1529 -529 -271 -1145 -331 -1713 -167 -722 208 -1302 742
-1564 1441 -63 166 -103 333 -135 555 l-6 45 35 -58 c20 -33 52 -80 71 -107z
m977 -1670 c34 -23 113 -67 175 -98 l113 -57 0 -43 c0 -56 -19 -100 -66 -152
-55 -60 -106 -84 -184 -84 -189 0 -308 191 -225 361 24 49 90 113 116 113 5 0
36 -18 71 -40z m2675 -22 c43 -45 65 -101 65 -168 0 -69 -19 -115 -69 -170
-50 -56 -102 -80 -179 -80 -140 0 -255 111 -254 246 l1 39 87 42 c48 23 128
66 177 96 101 61 110 60 172 -5z m-1221 -353 c-7 -11 -35 -33 -61 -50 -93 -58
-226 -41 -303 38 l-31 32 204 0 c202 0 204 0 191 -20z"/>
<path d="M3234 4436 c-76 -33 -153 -132 -207 -264 l-31 -76 -8 35 c-13 49 -50
79 -100 79 -33 0 -46 -6 -72 -33 -28 -30 -39 -34 -99 -40 -87 -8 -147 -35
-183 -82 -39 -51 -45 -152 -15 -237 18 -52 18 -61 6 -85 -22 -41 -18 -61 15
-95 24 -23 37 -29 58 -25 24 4 33 -3 73 -56 l47 -61 -47 -61 c-26 -34 -64 -88
-84 -121 -36 -59 -87 -196 -87 -232 0 -10 -9 -27 -20 -37 -38 -35 -13 -106 39
-110 10 0 33 -13 50 -28 18 -14 51 -32 74 -39 60 -17 199 -12 284 10 l72 18
27 -65 c53 -134 131 -234 206 -266 47 -19 111 -19 148 0 20 10 43 13 74 9 42
-6 48 -4 81 29 36 36 45 76 25 107 -8 12 -10 11 -10 -7 0 -19 -33 -53 -52 -53
-15 0 -38 33 -38 54 0 35 26 52 59 40 27 -11 27 -10 61 70 19 45 35 82 36 84
1 2 30 -5 65 -14 42 -11 103 -18 174 -18 95 -1 116 2 151 21 92 49 125 124
103 238 -8 39 -12 89 -11 113 4 48 -10 72 -42 72 -14 0 -28 11 -40 31 -10 16
-40 59 -67 94 -27 35 -49 66 -49 69 0 3 25 38 55 78 66 86 140 229 150 287 4
22 11 41 16 41 6 0 21 11 34 25 59 58 10 169 -72 164 -22 -1 -59 8 -88 21 -64
30 -193 30 -307 2 -46 -11 -78 -15 -78 -9 0 5 -20 52 -44 103 -48 101 -116
183 -178 215 -43 22 -110 24 -154 5z m144 -37 c54 -27 114 -101 157 -194 55
-118 58 -107 -45 -149 -49 -21 -90 -42 -90 -47 0 -21 30 -18 93 11 79 35 81
36 67 11 -26 -49 1 -131 44 -131 23 0 34 -23 43 -96 7 -58 7 -71 -4 -67 -8 3
-13 -3 -13 -16 0 -12 6 -24 14 -27 9 -4 16 -33 21 -92 4 -48 13 -96 21 -107
12 -17 14 -10 14 63 0 45 3 82 8 82 4 0 38 -31 75 -68 l68 -69 -55 -56 c-31
-31 -56 -61 -56 -66 0 -27 23 -15 73 36 65 66 63 67 139 -41 41 -59 47 -74 42
-102 -8 -41 10 -74 40 -74 29 0 46 -51 46 -135 0 -116 -70 -169 -220 -169 -84
0 -230 28 -230 44 0 5 9 47 21 95 22 93 22 120 1 106 -7 -4 -22 -48 -33 -96
-10 -49 -21 -91 -24 -93 -3 -3 -22 0 -43 7 -53 19 -202 89 -202 95 0 3 9 10
21 16 16 9 30 8 61 -5 48 -19 98 -7 123 28 21 31 20 32 -32 32 -27 0 -69 3
-95 7 -36 6 -48 4 -48 -5 0 -7 -16 -22 -36 -34 l-37 -21 -56 34 c-58 35 -76
40 -85 25 -4 -5 19 -25 51 -44 l57 -35 -60 -30 c-109 -55 -187 -83 -195 -71
-4 7 -15 50 -25 97 -16 74 -33 106 -50 89 -3 -2 6 -49 19 -103 14 -55 22 -102
18 -105 -14 -15 -155 -39 -226 -39 -76 0 -133 16 -166 46 -14 12 -15 20 -6 44
9 22 7 33 -6 54 -10 14 -24 26 -32 26 -10 0 -12 9 -8 38 12 84 76 210 162 319
l43 56 51 -52 c35 -36 53 -48 58 -40 9 15 -5 37 -48 73 -18 15 -33 33 -33 40
0 6 34 45 75 86 l74 74 -5 -75 -6 -74 21 30 c15 22 21 46 21 86 0 30 5 60 11
66 9 9 9 19 0 42 -9 19 -10 35 -3 48 5 10 12 41 16 68 12 89 40 197 52 202 7
2 44 -9 83 -25 59 -25 72 -28 82 -16 9 11 2 18 -35 33 -25 11 -64 25 -86 32
-47 14 -48 14 10 136 42 88 110 170 163 197 44 21 83 20 135 -5z m-588 -305
c0 -8 13 -29 29 -45 40 -40 96 -40 142 -1 28 23 32 24 25 7 -12 -30 -53 -232
-61 -299 -7 -58 -8 -60 -92 -140 -47 -45 -90 -81 -95 -81 -5 0 -26 22 -48 49
-30 38 -36 54 -29 67 26 49 -10 119 -61 119 -23 0 -31 7 -45 43 -10 23 -19 69
-22 102 -7 98 34 154 134 181 70 18 123 18 123 -2z m1180 2 c26 -10 34 -18 32
-32 -18 -100 -9 -130 46 -153 l30 -13 -15 -51 c-19 -67 -71 -162 -135 -248
l-51 -68 -91 85 -92 84 -13 99 c-12 96 -12 100 8 120 11 11 23 31 27 45 8 33
-21 84 -51 92 -40 10 -29 22 33 34 31 6 62 13 67 15 25 9 174 2 205 -9z m-558
-1111 c51 -25 110 -51 131 -57 44 -13 44 -19 2 -113 -23 -53 -24 -54 -58 -48
-84 13 -138 -64 -102 -149 5 -13 -2 -19 -33 -29 -61 -18 -104 -5 -165 51 -53
48 -111 142 -141 228 l-14 39 104 43 c57 24 116 51 131 62 15 10 33 18 40 18
6 0 54 -20 105 -45z"/>
<path d="M3223 4005 c-37 -16 -43 -46 -18 -79 20 -26 19 -101 -1 -135 l-16
-28 -24 24 c-42 42 -194 26 -194 -21 0 -7 7 -27 16 -45 25 -50 11 -110 -50
-211 -62 -103 -99 -208 -94 -270 3 -43 5 -45 53 -64 69 -28 276 -29 351 -3 45
16 54 16 92 3 110 -39 275 -37 370 4 40 18 42 21 42 63 0 69 -34 164 -95 265
-52 86 -55 95 -55 157 0 37 4 65 10 65 21 0 10 50 -15 66 -37 24 -151 16 -175
-13 -16 -20 -17 -20 -28 -2 -15 23 -16 145 -2 154 6 3 10 17 10 31 0 47 -106
70 -177 39z m137 -141 c0 -41 7 -62 40 -117 22 -37 40 -78 40 -94 -1 -26 -2
-25 -24 16 -22 42 -42 59 -73 60 -7 1 3 -21 21 -47 49 -68 60 -99 42 -123 -13
-20 -14 -20 -34 9 -12 15 -27 47 -34 70 -7 23 -19 42 -27 42 -9 0 -12 8 -9 25
5 22 2 25 -26 25 -55 0 -73 -11 -100 -58 -25 -46 -26 -46 -26 -17 0 19 15 53
40 90 34 52 40 68 40 115 l0 55 65 0 65 0 0 -51z m-218 -205 c-3 -52 0 -62 37
-121 22 -35 55 -95 73 -133 28 -60 33 -79 30 -135 -1 -35 -6 -68 -11 -73 -16
-16 -124 -37 -193 -37 -76 0 -159 15 -202 37 -28 14 -28 17 -22 69 9 75 37
144 101 249 49 80 55 96 55 145 l0 55 68 0 67 0 -3 -56z m443 -4 c1 -54 6 -68
53 -144 60 -97 92 -176 99 -248 5 -49 4 -52 -23 -66 -82 -42 -271 -47 -369
-10 l-50 19 2 50 c3 67 32 143 98 253 50 82 55 96 55 148 l0 58 68 0 67 0 0
-60z"/>
<path d="M3151 3473 c18 -26 38 -63 45 -83 16 -43 18 -100 4 -100 -28 0 -110
125 -110 168 0 16 -9 20 -46 25 -26 2 -50 10 -54 17 -16 26 -110 -181 -110
-243 0 -14 6 -29 13 -35 21 -18 127 -42 182 -42 56 0 161 24 183 42 41 35 -64
298 -119 298 -18 0 -17 -4 12 -47z"/>
<path d="M3452 3522 c-38 -6 -98 -116 -123 -226 -15 -70 -9 -79 76 -101 91
-23 193 -17 279 17 27 11 28 13 23 64 -5 53 -59 181 -93 223 l-20 23 1 -23 c0
-13 11 -44 24 -69 44 -83 48 -130 11 -130 -22 0 -73 78 -91 138 -8 27 -18 42
-29 42 -9 0 -20 10 -26 23 -6 16 -16 21 -32 19z"/>
</g>
</svg>
